<svg width="160" height="40" viewBox="0 0 160 40" xmlns="http://www.w3.org/2000/svg">
  <defs>
    <linearGradient id="buildingGradient3" x1="0%" y1="0%" x2="100%" y2="100%">
      <stop offset="0%" stop-color="#f97316" />
      <stop offset="100%" stop-color="#ea580c" />
    </linearGradient>
    <filter id="shadow" x="-20%" y="-20%" width="140%" height="140%">
      <feDropShadow dx="0" dy="1" stdDeviation="0.5" flood-opacity="0.2" />
    </filter>
  </defs>

  <g transform="translate(3, 3)" filter="url(#shadow)">
    <rect x="0" y="3" width="8" height="30" rx="1" fill="url(#buildingGradient3)" />
    <rect x="2" y="8" width="4" height="4" rx="0.5" fill="#ffffff" opacity="0.8" />
    <rect x="2" y="16" width="4" height="4" rx="0.5" fill="#ffffff" opacity="0.8" />
    <rect x="2" y="24" width="4" height="4" rx="0.5" fill="#ffffff" opacity="0.8" />

    <rect x="22" y="0" width="8" height="33" rx="1" fill="#fbbf24" opacity="0.9" />
    <rect x="24" y="5" width="4" height="4" rx="0.5" fill="#ffffff" opacity="0.8" />
    <rect x="24" y="13" width="4" height="4" rx="0.5" fill="#ffffff" opacity="0.8" />
    <rect x="24" y="21" width="4" height="4" rx="0.5" fill="#ffffff" opacity="0.8" />

    <rect x="11" y="8" width="8" height="25" rx="1" fill="#f97316" opacity="0.8" />
    <rect x="13" y="13" width="4" height="4" rx="0.5" fill="#ffffff" opacity="0.8" />
    <rect x="13" y="21" width="4" height="4" rx="0.5" fill="#ffffff" opacity="0.8" />
  </g>

  <text x="35" y="28" font-family="'Inter', 'Helvetica Neue', Arial, sans-serif" font-size="26" font-weight="500" text-anchor="start" fill="#f97316">my</text>
  <circle cx="72" cy="27" r="3" fill="#f97316" />
  <text x="75" y="28" font-family="'Inter', 'Helvetica Neue', Arial, sans-serif" font-size="26" font-weight="500" text-anchor="start" fill="#fbbf24">condo</text>
</svg>